<?xml version="1.0" encoding="UTF-8" standalone="no"?>
<!-- Created with Inkscape (http://www.inkscape.org/) -->

<svg
   xmlns:dc="http://purl.org/dc/elements/1.1/"
   xmlns:cc="http://creativecommons.org/ns#"
   xmlns:rdf="http://www.w3.org/1999/02/22-rdf-syntax-ns#"
   xmlns:svg="http://www.w3.org/2000/svg"
   xmlns="http://www.w3.org/2000/svg"
   xmlns:sodipodi="http://sodipodi.sourceforge.net/DTD/sodipodi-0.dtd"
   xmlns:inkscape="http://www.inkscape.org/namespaces/inkscape"
   width="298"
   height="76"
   id="svg2"
   version="1.1"
   inkscape:version="0.48.5 r10040"
   sodipodi:docname="logo.svg"
   inkscape:export-filename="/home/augusto/public_html/ontobecas/public/assets/img/logo.png"
   inkscape:export-xdpi="90"
   inkscape:export-ydpi="90">
  <defs
     id="defs4" />
  <sodipodi:namedview
     id="base"
     pagecolor="#ffffff"
     bordercolor="#666666"
     borderopacity="1.0"
     inkscape:pageopacity="0.0"
     inkscape:pageshadow="2"
     inkscape:zoom="1"
     inkscape:cx="96.129603"
     inkscape:cy="98.642857"
     inkscape:document-units="px"
     inkscape:current-layer="layer1"
     showgrid="false"
     inkscape:window-width="1366"
     inkscape:window-height="744"
     inkscape:window-x="0"
     inkscape:window-y="24"
     inkscape:window-maximized="1" />
  <metadata
     id="metadata7">
    <rdf:RDF>
      <cc:Work
         rdf:about="">
        <dc:format>image/svg+xml</dc:format>
        <dc:type
           rdf:resource="http://purl.org/dc/dcmitype/StillImage" />
        <dc:title></dc:title>
      </cc:Work>
    </rdf:RDF>
  </metadata>
  <g
     inkscape:label="Layer 1"
     inkscape:groupmode="layer"
     id="layer1"
     transform="translate(0,-976.36218)">
    <path
       style="fill:#add8e6"
       d="m 54.17444,1043.8171 c -2.93859,-0.494 -6.39182,-2.9359 -7.89297,-5.5813 -1.37063,-2.4153 -1.8798,-5.6331 -1.29173,-8.1633 l 0.21112,-0.9084 -9.81653,-5.0292 -9.81653,-5.0292 -0.76327,0.8693 c -0.4198,0.4781 -1.3921,1.2867 -2.16068,1.7969 -5.78804,3.8419 -13.72639,1.6862 -16.71031,-4.5378 -1.63384,-3.4079 -1.63458,-6.7585 -0.002,-10.1724 1.9408,-4.0589 5.83231,-6.4412 10.51288,-6.4356 2.989,0 5.55384,1.0685 7.99672,3.3203 l 1.06925,0.9856 9.69066,-4.97634 9.69066,-4.97629 -0.0821,-2.45354 c -0.0643,-1.92079 0.0248,-2.79194 0.41022,-4.01208 1.73832,-5.50277 7.29608,-8.98036 12.8831,-8.06119 9.29552,1.52929 13.03402,12.84858 6.42605,19.45655 -4.59947,4.59949 -11.68404,4.68549 -16.24344,0.19729 l -1.29914,-1.27893 -5.03841,2.58013 c -2.77112,1.4191 -7.18922,3.6899 -9.81801,5.0463 l -4.7796,2.4661 0.25829,0.928 c 0.14268,0.5126 0.19916,1.9336 0.12619,3.1745 l -0.13211,2.2465 9.80098,4.9873 9.80097,4.9873 1.35624,-1.282 c 0.74593,-0.7051 1.79699,-1.5065 2.3357,-1.7809 7.08672,-3.6098 15.58609,0.6872 16.81529,8.5013 0.77356,4.9175 -1.79611,9.8841 -6.30384,12.1838 -1.14136,0.5822 -3.91015,1.213 -5.16675,1.177 -0.48018,-0.014 -1.41015,-0.1153 -2.06662,-0.2257 z"
       id="path3006"
       inkscape:connector-curvature="0" />
    <text
       xml:space="preserve"
       style="font-size:16px;font-style:normal;font-variant:normal;font-weight:normal;font-stretch:normal;line-height:125%;letter-spacing:0px;word-spacing:0px;fill:#b0c4de;fill-opacity:1;stroke:none;font-family:Sawasdee;-inkscape-font-specification:Sawasdee"
       x="39.285706"
       y="1046.4336"
       id="text2985"
       sodipodi:linespacing="125%"><tspan
         sodipodi:role="line"
         id="tspan2987"
         x="39.285706"
         y="1046.4336"
         style="font-size:56px;font-style:normal;font-variant:normal;font-weight:normal;font-stretch:normal;fill:#b0c4de;font-family:Segoe UI;-inkscape-font-specification:Segoe UI">ontobecas</tspan></text>
    <path
       style="fill:#add8e6;fill-opacity:1;stroke:none"
       d="m 219.43638,998.24352 22.18466,11.16948 -23.26157,10.6292 -22.18466,-11.5266 z"
       id="rect3010"
       inkscape:connector-curvature="0"
       sodipodi:nodetypes="ccccc" />
  </g>
</svg>
